<svg width="64" height="64" viewBox="0 0 64 64" fill="none" xmlns="http://www.w3.org/2000/svg">
<g clip-path="url(#clip0_6_1217)">
<path d="M32 64C49.6731 64 64 49.6731 64 32C64 14.3269 49.6731 0 32 0C14.3269 0 0 14.3269 0 32C0 49.6731 14.3269 64 32 64Z" fill="#F0263C" style="fill:#F0263C;fill:color(display-p3 0.9412 0.1490 0.2353);fill-opacity:1;"/>
<path d="M31.421 31.459C30.879 30.3259 30.5955 29.0869 30.5955 27.833C30.5955 27.5078 30.6196 27.168 30.671 26.7633L30.7104 26.4554L31.1033 26.4779C31.1577 26.4815 31.2117 26.4854 31.267 26.4854C33.6931 26.4854 35.6667 24.5118 35.6667 22.0857C35.6667 20.5867 34.9115 19.2048 33.6468 18.3888L33.3945 18.2264L33.5299 17.9585C33.8209 17.3823 34.1699 16.8475 34.5716 16.3612C34.362 16.3426 34.1627 16.3335 33.9713 16.3335C31.6012 16.3335 29.3886 17.3983 27.9003 19.2547C27.7903 19.3865 27.691 19.5187 27.5998 19.6561C26.6763 20.9767 26.1906 22.5158 26.1906 24.1141C26.1906 27.4676 28.3058 30.386 31.421 31.459Z" fill="white" style="fill:white;fill-opacity:1;"/>
<path d="M27.6029 32.0482C27.294 31.9479 26.9782 31.82 26.6091 31.6455L26.3285 31.513L26.4704 31.1481C26.4909 31.0973 26.5114 31.0462 26.5287 30.9932C26.892 29.8754 26.7982 28.6833 26.2647 27.6361C25.7312 26.5889 24.8217 25.8122 23.7042 25.4493C22.2774 24.9858 20.7306 25.2771 19.5639 26.2276L19.3312 26.4171L19.1183 26.2058C18.6606 25.7507 18.2596 25.2533 17.9214 24.7214C17.839 24.9148 17.7687 25.101 17.7095 25.2839C16.9771 27.5378 17.3059 29.9714 18.6118 31.9603C18.7029 32.1061 18.798 32.2409 18.9005 32.3701C19.8709 33.6566 21.1847 34.5941 22.7049 35.0879C25.8953 36.1247 29.324 35.015 31.3068 32.3838C30.0607 32.5495 28.795 32.4356 27.6029 32.0482Z" fill="white" style="fill:white;fill-opacity:1;"/>
<path d="M30.6868 36.1969C30.4964 36.4593 30.277 36.72 29.997 37.0179L29.7838 37.2445L29.4827 36.9971C29.4401 36.9613 29.3977 36.9255 29.3522 36.8926C27.389 35.4662 24.6322 35.903 23.2061 37.8659C22.3252 39.0781 22.1237 40.64 22.6674 42.0436L22.7758 42.3235L22.5089 42.4605C21.9347 42.7554 21.3377 42.9833 20.7273 43.1405C20.8855 43.2785 21.0411 43.4029 21.1964 43.5155C23.1137 44.9084 25.5297 45.3479 27.8253 44.7206C27.992 44.6789 28.1498 44.6301 28.3045 44.5725C29.8276 44.0474 31.1251 43.0875 32.0649 41.7942C34.0363 39.081 34.0408 35.4768 32.1508 32.7779C31.9226 34.0136 31.4238 35.1826 30.6868 36.1969Z" fill="white" style="fill:white;fill-opacity:1;"/>
<path d="M32.7865 32.097C33.8913 32.696 34.849 33.5316 35.5857 34.5456C35.7768 34.8086 35.9571 35.0977 36.1534 35.4558L36.3028 35.7286L35.974 35.9389C35.9271 35.9682 35.8802 35.9972 35.8353 36.03C34.8845 36.7208 34.2588 37.7409 34.0752 38.9017C33.8913 40.0625 34.1703 41.2253 34.861 42.1761C35.7422 43.389 37.1689 44.0657 38.668 43.9798L38.9675 43.9632L39.0157 44.2591C39.1189 44.8955 39.1511 45.5338 39.1121 46.1637C39.2928 46.0553 39.4591 45.9459 39.6137 45.8333C41.5313 44.4401 42.6957 42.278 42.808 39.9017C42.82 39.7298 42.8223 39.5651 42.8155 39.4001C42.7862 37.7891 42.2745 36.2582 41.3354 34.9652C39.364 32.252 35.9378 31.1345 32.7865 32.097Z" fill="white" style="fill:white;fill-opacity:1;"/>
<path d="M32.3353 31.2822C33.2461 30.4166 34.3366 29.764 35.5287 29.3763C35.837 29.2764 36.1677 29.1943 36.5697 29.1178L36.8744 29.0599L36.975 29.4417C36.9883 29.4941 37.0014 29.5462 37.0183 29.5983C37.3813 30.7158 38.1579 31.6256 39.2051 32.1591C40.2526 32.693 41.4447 32.787 42.5625 32.4234C43.9876 31.9605 45.0684 30.8153 45.4538 29.3602L45.5306 29.0702L45.8268 29.1161C46.4645 29.2147 47.0817 29.3811 47.6683 29.6128C47.6211 29.408 47.5684 29.216 47.5091 29.0334C46.7767 26.7795 45.0801 25.0038 42.8548 24.1626C42.695 24.0981 42.5394 24.0448 42.3805 24.0008C40.8388 23.5298 39.2246 23.5441 37.7047 24.0379C34.5152 25.0744 32.393 27.9876 32.3353 31.2822Z" fill="white" style="fill:white;fill-opacity:1;"/>
<path d="M31.3333 19.6667L29.6666 21.3333L31.3333 23L32.9999 21.3333L31.3333 19.6667Z" fill="#F0263C" style="fill:#F0263C;fill:color(display-p3 0.9412 0.1490 0.2353);fill-opacity:1;"/>
<path d="M20.0642 28.8228L21.1343 30.9229L23.2344 29.8529L22.1643 27.7528L20.0642 28.8228Z" fill="#F0263C" style="fill:#F0263C;fill:color(display-p3 0.9412 0.1490 0.2353);fill-opacity:1;"/>
<path d="M25.2901 42.3697L27.618 42.0009L27.2493 39.673L24.9213 40.0417L25.2901 42.3697Z" fill="#F0263C" style="fill:#F0263C;fill:color(display-p3 0.9412 0.1490 0.2353);fill-opacity:1;"/>
<path d="M39.7888 41.586L40.1575 39.258L37.8295 38.8893L37.4608 41.2173L39.7888 41.586Z" fill="#F0263C" style="fill:#F0263C;fill:color(display-p3 0.9412 0.1490 0.2353);fill-opacity:1;"/>
<path d="M43.5237 27.5548L41.4236 26.4847L40.3535 28.5848L42.4536 29.6549L43.5237 27.5548Z" fill="#F0263C" style="fill:#F0263C;fill:color(display-p3 0.9412 0.1490 0.2353);fill-opacity:1;"/>
</g>
<defs>
<clipPath id="clip0_6_1217">
<rect width="64" height="64" fill="white" style="fill:white;fill-opacity:1;"/>
</clipPath>
</defs>
</svg>
