<svg width="64" height="64" viewBox="0 0 64 64" fill="none" xmlns="http://www.w3.org/2000/svg">
<g clip-path="url(#clip0_6_1378)">
<path d="M32 64C49.6731 64 64 49.6731 64 32C64 14.3269 49.6731 0 32 0C14.3269 0 0 14.3269 0 32C0 49.6731 14.3269 64 32 64Z" fill="white" style="fill:white;fill-opacity:1;"/>
<path d="M32 25.3333C35.6819 25.3333 38.6667 28.3181 38.6667 32C38.6667 35.6819 35.6819 38.6666 32 38.6666C28.3181 38.6666 25.3333 35.6819 25.3333 32C25.3333 28.3181 28.3181 25.3333 32 25.3333Z" fill="white" style="fill:white;fill-opacity:1;"/>
<path d="M32 25.3333C35.6819 25.3333 38.6667 28.318 38.6667 32C38.6667 35.682 35.6819 38.6667 32 38.6667C28.3181 38.6667 25.3333 35.682 25.3333 32C25.3333 28.318 28.3181 25.3333 32 25.3333ZM32 24C27.5888 24 24 27.5888 24 32C24 36.4112 27.5888 40 32 40C36.4112 40 40 36.4112 40 32C40 27.5888 36.4112 24 32 24Z" fill="#191977" style="fill:#191977;fill:color(display-p3 0.0980 0.0980 0.4667);fill-opacity:1;"/>
<path d="M1.82812 21.3333H62.1719C57.7782 8.9061 45.9319 0 32 0C18.0681 0 6.22183 8.9061 1.82812 21.3333Z" fill="#FF7700" style="fill:#FF7700;fill:color(display-p3 1.0000 0.4667 0.0000);fill-opacity:1;"/>
<path d="M62.1719 42.6667H1.82812C6.22192 55.0939 18.0681 64 32 64C45.9319 64 57.7782 55.0939 62.1719 42.6667Z" fill="#1E5B00" style="fill:#1E5B00;fill:color(display-p3 0.1176 0.3569 0.0000);fill-opacity:1;"/>
<path d="M31.9998 36.0088C34.2089 36.0088 35.9998 34.2179 35.9998 32.0088C35.9998 29.7997 34.2089 28.0088 31.9998 28.0088C29.7906 28.0088 27.9998 29.7997 27.9998 32.0088C27.9998 34.2179 29.7906 36.0088 31.9998 36.0088Z" fill="#191977" style="fill:#191977;fill:color(display-p3 0.0980 0.0980 0.4667);fill-opacity:1;"/>
</g>
<defs>
<clipPath id="clip0_6_1378">
<rect width="64" height="64" fill="white" style="fill:white;fill-opacity:1;"/>
</clipPath>
</defs>
</svg>
