<svg width="64" height="64" viewBox="0 0 64 64" fill="none" xmlns="http://www.w3.org/2000/svg">
<g clip-path="url(#clip0_6_2209)">
<path d="M32 64C49.6731 64 64 49.6731 64 32C64 14.3269 49.6731 0 32 0C14.3269 0 0 14.3269 0 32C0 49.6731 14.3269 64 32 64Z" fill="#191977" style="fill:#191977;fill:color(display-p3 0.0980 0.0980 0.4667);fill-opacity:1;"/>
<path d="M32 7.99998V6.66668H26.8073L32 3.20488V1.60248L24.4036 6.66668H20V6.39758L29.4284 0.111877C28.4256 0.191677 27.4362 0.317277 26.4614 0.487477L20 4.79518V2.33498C19.5501 2.51718 19.1061 2.70968 18.6667 2.91138V7.99998H32Z" fill="white" style="fill:white;fill-opacity:1;"/>
<path d="M13.3333 6.0163C12.4708 6.637 11.6404 7.2985 10.8453 8H13.3333V6.0163Z" fill="white" style="fill:white;fill-opacity:1;"/>
<path d="M18.6667 21.3333H20V16.5382L27.1927 21.3333H29.5964L20 14.9358V14.6667H24.4036L32 19.7309V18.1285L26.8073 14.6667H32V13.3333H18.6667V21.3333Z" fill="white" style="fill:white;fill-opacity:1;"/>
<path d="M6.01639 13.3333C5.70239 13.7697 5.39949 14.2142 5.10739 14.6666C5.08599 14.6997 5.06479 14.733 5.04359 14.7662C4.50449 15.6076 4.00419 16.4754 3.54419 17.3682L7.59649 14.6667H12.0001V14.9358L2.40369 21.3333H4.80729L12 16.5381V21.3333H13.3333V13.3333H6.01639Z" fill="white" style="fill:white;fill-opacity:1;"/>
<path d="M20 6.6667H24.4036L32 1.6025V0C31.1335 0 30.2777 0.0444 29.4284 0.1119L20 6.3975V6.6667Z" fill="#F0263C" style="fill:#F0263C;fill:color(display-p3 0.9412 0.1490 0.2353);fill-opacity:1;"/>
<path d="M20 14.6667V14.9358L29.5964 21.3333H32V19.7309L24.4036 14.6667H20Z" fill="#F0263C" style="fill:#F0263C;fill:color(display-p3 0.9412 0.1490 0.2353);fill-opacity:1;"/>
<path d="M12 14.9358V14.6667H7.59645L3.54415 17.3682C2.88725 18.6431 2.31165 19.9659 1.82825 21.3333H2.40375L12 14.9358Z" fill="#F0263C" style="fill:#F0263C;fill:color(display-p3 0.9412 0.1490 0.2353);fill-opacity:1;"/>
<path d="M13.3334 21.3333H18.6667V13.3333H32V7.99998H18.6667V2.91138C16.7831 3.77628 14.9987 4.81778 13.3334 6.01628V7.99998H10.8454C9.04316 9.58978 7.42306 11.3787 6.01636 13.3333H13.3335L13.3334 21.3333Z" fill="#F0263C" style="fill:#F0263C;fill:color(display-p3 0.9412 0.1490 0.2353);fill-opacity:1;"/>
<path d="M51.7711 49.9526L47.9999 46.1814L44.2287 49.9526L47.9999 53.7238L51.7711 49.9526Z" fill="#F0263C" style="fill:#F0263C;fill:color(display-p3 0.9412 0.1490 0.2353);fill-opacity:1;"/>
<path d="M48 46.1814L51.7712 49.9526L48 53.7238L44.2288 49.9526L48 46.1814ZM48 45.2386L43.2859 49.9526L48 54.6666L52.7141 49.9526L48 45.2386Z" fill="white" style="fill:white;fill-opacity:1;"/>
<path d="M41.1009 23.3333L38.6667 20.8992L36.2326 23.3333L38.6667 25.7675L41.1009 23.3333Z" fill="#F0263C" style="fill:#F0263C;fill:color(display-p3 0.9412 0.1490 0.2353);fill-opacity:1;"/>
<path d="M38.6667 20.8992L41.1009 23.3334L38.6667 25.7676L36.2325 23.3334L38.6667 20.8992ZM35.3334 23.3334L38.6667 26.6667L42 23.3334L38.6667 20.0001L35.3334 23.3334Z" fill="white" style="fill:white;fill-opacity:1;"/>
<path d="M50.4343 12.6667L48.0001 10.2326L45.566 12.6667L48.0001 15.1009L50.4343 12.6667Z" fill="#F0263C" style="fill:#F0263C;fill:color(display-p3 0.9412 0.1490 0.2353);fill-opacity:1;"/>
<path d="M48 10.2325L50.4342 12.6667L48 15.1009L45.5658 12.6667L48 10.2325ZM48 9.33331L44.6667 12.6666L48 15.9999L51.3334 12.6666L48 9.33331Z" fill="white" style="fill:white;fill-opacity:1;"/>
<path d="M58.4343 22.0001L56.0001 19.5659L53.566 22.0001L56.0001 24.4342L58.4343 22.0001Z" fill="#F0263C" style="fill:#F0263C;fill:color(display-p3 0.9412 0.1490 0.2353);fill-opacity:1;"/>
<path d="M56 19.5658L58.4342 22L56 24.4342L53.5658 22L56 19.5658ZM56 18.6666L52.6667 21.9999L56 25.3332L59.3334 21.9999L56 18.6666Z" fill="white" style="fill:white;fill-opacity:1;"/>
</g>
<defs>
<clipPath id="clip0_6_2209">
<rect width="64" height="64" fill="white" style="fill:white;fill-opacity:1;"/>
</clipPath>
</defs>
</svg>
