<svg width="64" height="64" viewBox="0 0 64 64" fill="none" xmlns="http://www.w3.org/2000/svg">
<g clip-path="url(#clip0_6_2303)">
<path d="M32 64C49.6731 64 64 49.6731 64 32C64 14.3269 49.6731 0 32 0C14.3269 0 0 14.3269 0 32C0 49.6731 14.3269 64 32 64Z" fill="white" style="fill:white;fill-opacity:1;"/>
<path d="M64 32C64 14.3269 49.6731 0 32 0C26.1693 0 20.7079 1.5671 16 4.2917V59.7084C20.7079 62.4329 26.1693 64.0001 32 64.0001C49.6731 64.0001 64 49.6731 64 32Z" fill="#1E5B00" style="fill:#1E5B00;fill:color(display-p3 0.1176 0.3569 0.0000);fill-opacity:1;"/>
<path d="M29.3333 26.6667C29.3333 23.6152 30.1883 20.7637 31.6707 18.3374C27.0708 21.1477 24 26.215 24 32C24 40.8365 31.1635 48 40 48C45.7851 48 50.8523 44.9292 53.6626 40.3293C51.2362 41.8117 48.3848 42.6667 45.3333 42.6667C36.4968 42.6667 29.3333 35.5032 29.3333 26.6667Z" fill="white" style="fill:white;fill-opacity:1;"/>
<path d="M48 18.6665L44 22.6666L48 26.6666L52.0001 22.6666L48 18.6665Z" fill="white" style="fill:white;fill-opacity:1;"/>
</g>
<defs>
<clipPath id="clip0_6_2303">
<rect width="64" height="64" fill="white" style="fill:white;fill-opacity:1;"/>
</clipPath>
</defs>
</svg>
