<svg xmlns="http://www.w3.org/2000/svg" data-name="Calque 1" width="1200" height="1200" viewBox="0 0 400 400">
  <path d="M359.68,260.31l-16.048-54.857c-.413-1.413-1.206-2.667-2.302-3.651-.143-.127-.301-.27-.476-.397L159.218,61.515c-2.222-1.714-5.222-2.127-7.81-1.079l-94.302,38c-1.714.698-3.127,1.968-4,3.571-.286.524-.524,1.095-.682,1.683l-12.143,44.127c-.762,2.778.047,5.778,2.127,7.794l187.541,182.287c.794.778,1.73,1.349,2.73,1.714.904.349,1.857.524,2.81.524,1.397,0,2.81-.365,4.064-1.127l116.588-69.651c3.095-1.857,4.555-5.587,3.54-9.048Z" fill="#b7b7b7" stroke-width="0"/>
  <path d="M229.584,259.691l3.222,76.429c-.222-.143-.429-.317-.635-.508L44.615,153.325c-1.238-1.206-1.73-3-1.27-4.667l12.143-44.127c.048-.175.111-.349.175-.524l171.223,154.096c.794.714,1.714,1.254,2.698,1.587Z" fill="#9f9f9f" stroke-width="0"/>
  <path d="M338.568,203.643l-104.223,52.81c-.683.349-1.413.508-2.159.508-1.143,0-2.286-.413-3.175-1.206L57.789,101.642c.159-.111.333-.19.508-.254l94.302-38c1.556-.635,3.349-.397,4.683.635l181.287,139.62Z" fill="#ffde3b" stroke-width="0"/>
  <path d="M338.568,203.643l-104.223,52.81c-.683.349-1.413.508-2.159.508-1.143,0-2.286-.413-3.175-1.206L57.789,101.642c.159-.111.333-.19.508-.254l94.302-38c1.556-.635,3.349-.397,4.683.635l181.287,139.62Z" fill="#c8c8c8" stroke-width="0"/>
  <path d="M119.826,157.48l109.186,98.275c.889.794,2.032,1.206,3.175,1.206.746,0,1.476-.159,2.159-.508l104.223-52.81-83.218-64.091c-7.434-.463-14.949-.712-22.544-.712-40.399,0-78.685,6.691-112.98,18.64Z" fill="#d6d6d6" stroke-width="0"/>
  <path d="M226.885,258.103l-127.925-115.129c.667,26.417,10.937,57.896,29.338,91.683l103.873,100.954c.206.191.413.365.635.508l-3.222-76.429c-.984-.333-1.905-.873-2.698-1.587Z" fill="#adadad" stroke-width="0"/>
  <path d="M234.346,240.58c-.682.349-1.413.508-2.159.508-1.143,0-2.286-.413-3.175-1.206L58.297,101.388c-.175.064-.349.143-.508.254l171.223,154.112c.889.794,2.032,1.206,3.175,1.206.746,0,1.476-.159,2.159-.508l104.223-52.81-104.223,36.937Z" fill="#fff" opacity=".2" stroke-width="0"/>
  <path d="M152.599,79.261c1.556-.635,3.349-.397,4.683.635l181.287,123.747L157.282,64.023c-1.333-1.032-3.127-1.27-4.683-.635l-94.302,38c-.175.064-.349.143-.508.254l94.81-22.381Z" fill="#fff" opacity=".2" stroke-width="0"/>
  <path d="M359.68,260.31l-16.048-54.857c-.198-.679,8.111,53.27,8.111,53.27,1.016,3.46-.444,7.191-3.54,9.048,0,0-109.421,71.706-108.651,71.239l116.588-69.651c3.095-1.857,4.555-5.587,3.54-9.048Z" fill="#9f9f9f" stroke-width="0"/>
  <path d="M117.804,119.381l37.496,52.104,5.142-2.967-10.76-14.677,16.377-9.455,18.902,9.975,5.14-2.968-67.236-34.935-5.061,2.924ZM128.778,124.711l30.113,15.891-13.289,7.673-17.14-23.379.316-.184ZM210.154,137.242c.358-1.347.324-2.635-.098-3.869-.422-1.232-.82-2.245-1.194-3.038l.397-.228,7.977,6.63c3.274,2.719,4.88,5.177,4.818,7.374-.062,2.195-1.318,4.001-3.77,5.418-1.832,1.057-3.657,1.625-5.475,1.7-1.817.078-3.514-.084-5.087-.482-1.575-.398-2.933-.775-4.071-1.127l-.343,4.953c1.998.767,4.134,1.341,6.41,1.719,2.276.38,4.596.408,6.958.087,2.364-.319,4.672-1.128,6.927-2.431,2.424-1.401,4.129-3.088,5.118-5.063.986-1.973,1.008-4.184.065-6.628s-3.1-5.07-6.476-7.875l-40.399-33.575-4.508,2.603,6.238,5.187-.474.273c-1.025-.369-2.383-.815-4.074-1.339-1.693-.524-3.544-.798-5.552-.826-2.012-.029-4.005.529-5.983,1.669-2.558,1.477-3.99,3.461-4.294,5.957-.307,2.491.488,5.298,2.387,8.416,1.896,3.117,4.858,6.349,8.879,9.691,4.092,3.401,8.132,5.965,12.125,7.695,3.99,1.73,7.707,2.655,11.151,2.779,3.444.126,6.393-.521,8.845-1.938,1.978-1.141,3.145-2.384,3.502-3.731ZM201.864,136.103c-1.95,1.128-4.174,1.578-6.67,1.35-2.496-.226-5.122-1.017-7.876-2.369-2.755-1.35-5.495-3.161-8.22-5.425-2.66-2.212-4.754-4.41-6.284-6.6-1.528-2.19-2.286-4.202-2.269-6.036.016-1.834,1.012-3.322,2.99-4.464,1.899-1.094,4.106-1.505,6.625-1.232,2.519.276,5.191,1.122,8.016,2.539,2.824,1.42,5.65,3.305,8.481,5.656,2.897,2.407,5.05,4.67,6.456,6.786,1.409,2.116,2.02,4.009,1.835,5.675-.183,1.668-1.212,3.04-3.083,4.12ZM222.478,204.737c.279.925.198,1.792-.24,2.6-.439.809-1.249,1.514-2.429,2.114-1.172.595-2.39.921-3.657.975-1.268.056-2.538-.172-3.812-.685-1.273-.512-2.505-1.322-3.695-2.431l2.967-1.51c.578.507,1.172.871,1.781,1.091.609.222,1.214.313,1.814.276s1.164-.192,1.691-.46c.521-.264.888-.574,1.104-.933.217-.357.281-.733.192-1.13-.09-.398-.329-.784-.719-1.159-.364-.35-.766-.595-1.206-.738-.439-.14-.929-.202-1.468-.183-.539.02-1.147.095-1.818.226l-2.021.377c-1.555.302-3.04.295-4.457-.026-1.415-.318-2.72-1.056-3.914-2.209-.986-.939-1.609-1.883-1.868-2.829-.259-.947-.178-1.828.24-2.646s1.156-1.497,2.214-2.034c1.076-.547,2.223-.828,3.441-.842,1.215-.012,2.415.217,3.598.694s2.265,1.177,3.243,2.096l-2.939,1.496c-.696-.586-1.434-.938-2.218-1.06-.781-.121-1.542.006-2.279.38-.501.254-.845.544-1.035.868-.188.326-.236.667-.143,1.023s.313.699.662,1.035c.281.284.591.499.925.645.338.147.691.242,1.057.282.369.042.749.047,1.141.014.394-.033.787-.091,1.181-.177l1.652-.327c.791-.169,1.581-.262,2.375-.277.792-.016,1.575.064,2.347.239.772.172,1.528.454,2.266.848.738.392,1.445.913,2.127,1.559.987.955,1.621,1.896,1.9,2.818ZM214.117,188.187l16.217,15.577-3.066,1.559-16.217-15.577,3.066-1.559ZM239.309,195.047l2.827,2.714-9.282,4.72-16.217-15.577,3.066-1.559,13.39,12.863,6.216-3.161ZM239.564,175.248l11.217,18.119-3.95,2.009-21.224-13.032,3.407-1.731,15.825,10.052.135-.068-8.808-13.619,3.398-1.73ZM264.494,182.244l2.826,2.714-9.8,4.984-16.217-15.577,9.773-4.968,2.826,2.714-6.706,3.41,3.864,3.713,6.202-3.154,2.827,2.716-6.204,3.153,3.872,3.72,6.735-3.424ZM277.809,179.624l3.384-1.722-9.385-4.49c.023-.043.057-.083.078-.127.375-.795.381-1.669.025-2.624-.36-.953-1.076-1.947-2.153-2.982-1.071-1.028-2.209-1.821-3.412-2.378-1.203-.555-2.409-.843-3.621-.867s-2.367.242-3.46.8l-5.723,2.908,16.216,15.577,3.068-1.559-5.749-5.521,2.237-1.138,8.496,4.125ZM259.411,169.274l2.068-1.049c.589-.301,1.175-.457,1.758-.47s1.153.109,1.714.366,1.11.646,1.649,1.163c.533.513.884.989,1.051,1.431.169.443.149.848-.059,1.218-.208.369-.605.702-1.19.998l-2.082,1.058-4.909-4.715Z" fill="#818181" stroke-width="0"/>
<title>ounce silver usd</title></svg>
