<svg xmlns="http://www.w3.org/2000/svg" data-name="Calque 1" width="1200" height="1200" viewBox="0 0 400 400">
  <path d="M359.68,260.31l-16.048-54.857c-.413-1.413-1.206-2.667-2.302-3.651-.143-.127-.301-.27-.476-.397L159.218,61.515c-2.222-1.714-5.222-2.127-7.81-1.079l-94.302,38c-1.714.698-3.127,1.968-4,3.571-.286.524-.524,1.095-.682,1.683l-12.143,44.127c-.762,2.778.047,5.778,2.127,7.794l187.541,182.287c.794.778,1.73,1.349,2.73,1.714.904.349,1.857.524,2.81.524,1.397,0,2.81-.365,4.064-1.127l116.588-69.651c3.095-1.857,4.555-5.587,3.54-9.048Z" fill="#f4b613" stroke-width="0"/>
  <path d="M229.584,259.691l3.222,76.429c-.222-.143-.429-.317-.635-.508L44.615,153.325c-1.238-1.206-1.73-3-1.27-4.667l12.143-44.127c.048-.175.111-.349.175-.524l171.223,154.096c.794.714,1.714,1.254,2.698,1.587Z" fill="#d89f00" stroke-width="0"/>
  <path d="M338.568,203.643l-104.223,52.81c-.683.349-1.413.508-2.159.508-1.143,0-2.286-.413-3.175-1.206L57.789,101.642c.159-.111.333-.19.508-.254l94.302-38c1.556-.635,3.349-.397,4.683.635l181.287,139.62Z" fill="#ffde3b" stroke-width="0"/>
  <path d="M338.568,203.643l-104.223,52.81c-.683.349-1.413.508-2.159.508-1.143,0-2.286-.413-3.175-1.206L57.789,101.642c.159-.111.333-.19.508-.254l94.302-38c1.556-.635,3.349-.397,4.683.635l181.287,139.62Z" fill="#facd29" stroke-width="0"/>
  <path d="M119.826,157.48l109.186,98.275c.889.794,2.032,1.206,3.175,1.206.746,0,1.476-.159,2.159-.508l104.223-52.81-83.218-64.091c-7.434-.463-14.949-.712-22.544-.712-40.399,0-78.685,6.691-112.98,18.64Z" fill="#ffde3b" stroke-width="0"/>
  <path d="M226.885,258.103l-127.925-115.129c.667,26.417,10.937,57.896,29.338,91.683l103.873,100.954c.206.191.413.365.635.508l-3.222-76.429c-.984-.333-1.905-.873-2.698-1.587Z" fill="#fff" opacity=".15" stroke-width="0"/>
  <path d="M234.346,240.58c-.682.349-1.413.508-2.159.508-1.143,0-2.286-.413-3.175-1.206L58.297,101.388c-.175.064-.349.143-.508.254l171.223,154.112c.889.794,2.032,1.206,3.175,1.206.746,0,1.476-.159,2.159-.508l104.223-52.81-104.223,36.937Z" fill="#fff" opacity=".2" stroke-width="0"/>
  <path d="M152.599,79.261c1.556-.635,3.349-.397,4.683.635l181.287,123.747L157.282,64.023c-1.333-1.032-3.127-1.27-4.683-.635l-94.302,38c-.175.064-.349.143-.508.254l94.81-22.381Z" fill="#fff" opacity=".2" stroke-width="0"/>
  <path d="M359.68,260.31l-16.048-54.857c-.198-.679,8.111,53.27,8.111,53.27,1.016,3.46-.444,7.191-3.54,9.048,0,0-109.421,71.706-108.651,71.239l116.588-69.651c3.095-1.857,4.555-5.587,3.54-9.048Z" fill="#d89f00" stroke-width="0"/>
  <path d="M118.59,118.927l37.494,52.104,5.143-2.968-10.759-14.676,16.377-9.454,18.901,9.975,5.14-2.968-67.234-34.934-5.063,2.921ZM129.565,124.26l30.112,15.891-13.289,7.671-17.139-23.379.316-.183ZM206.906,142.411c-1.897,1.095-4.126,1.621-6.686,1.573-2.559-.047-5.356-.736-8.388-2.07-3.035-1.334-6.222-3.388-9.564-6.166l-24.957-20.74,4.669-2.693,24.544,20.399c2.865,2.379,5.771,3.919,8.721,4.615,2.951.698,5.394.487,7.332-.632,1.159-.669,1.961-1.669,2.4-3.005.44-1.334.279-2.897-.484-4.691-.76-1.793-2.369-3.709-4.824-5.749l-23.217-19.295,4.669-2.695,39.273,32.641-4.666,2.694-6.65-5.526-.315.184c1.282,2.069,1.868,4.115,1.753,6.137-.113,2.022-1.318,3.695-3.612,5.019ZM229.321,199.922c.484,1.254.527,2.387.135,3.398-.392,1.008-1.198,1.823-2.415,2.443-1.359.691-2.891.975-4.593.851-1.702-.122-3.463-.636-5.278-1.538-1.818-.904-3.579-2.175-5.291-3.818-1.314-1.263-2.316-2.477-3.006-3.641-.69-1.166-1.085-2.251-1.186-3.254-.098-1.005.076-1.895.522-2.672.448-.778,1.149-1.411,2.107-1.897.822-.419,1.721-.678,2.694-.783.977-.105,1.981-.063,3.017.124,1.035.188,2.062.512,3.079.977,1.017.463,1.976,1.056,2.877,1.775l-3.116,1.585c-.484-.32-.964-.578-1.442-.773-.479-.195-.949-.328-1.417-.397-.465-.069-.918-.074-1.356-.014-.439.061-.857.191-1.254.392-.741.377-1.184.906-1.333,1.587-.146.68.016,1.476.488,2.386.473.913,1.273,1.911,2.403,2.996,1.13,1.084,2.243,1.929,3.342,2.534,1.099.605,2.136.963,3.113,1.076.977.112,1.846-.026,2.612-.415.693-.353,1.147-.788,1.364-1.305s.202-1.085-.043-1.705c-.23-.587-.679-1.196-1.312-1.823l-3.104,1.579-2.581-2.48,6.067-3.086,2.043,1.964c1.426,1.369,2.381,2.68,2.865,3.936ZM240.615,186.626c-1.769-1.698-3.571-2.992-5.41-3.88-1.838-.888-3.596-1.384-5.273-1.489-1.68-.104-3.159.171-4.438.82-1.288.655-2.119,1.556-2.491,2.704-.374,1.146-.236,2.466.409,3.961.645,1.494,1.852,3.09,3.621,4.788,1.764,1.694,3.562,2.985,5.397,3.874,1.835.888,3.593,1.388,5.27,1.495,1.68.108,3.164-.167,4.452-.82,1.28-.651,2.108-1.551,2.482-2.699.375-1.147.242-2.47-.401-3.966-.645-1.495-1.849-3.092-3.618-4.79ZM240.45,193.594c-.146.672-.589,1.196-1.33,1.572-.741.377-1.59.512-2.55.401-.96-.109-1.983-.464-3.074-1.066-1.091-.599-2.21-1.451-3.354-2.551-1.147-1.101-1.959-2.106-2.443-3.016-.482-.911-.648-1.7-.502-2.372.146-.672.589-1.197,1.33-1.573.741-.377,1.59-.512,2.548-.401.96.109,1.984.463,3.075,1.066,1.091.599,2.21,1.451,3.354,2.551,1.147,1.101,1.959,2.106,2.443,3.016.481.911.649,1.701.502,2.372ZM257.438,185.829l2.826,2.715-9.282,4.721-16.217-15.578,3.066-1.559,13.39,12.862,6.217-3.161ZM269.921,178.099c-.648-1.456-1.814-2.995-3.503-4.616-1.683-1.618-3.413-2.864-5.193-3.734-1.776-.873-3.516-1.352-5.215-1.437-1.699-.086-3.277.243-4.737.983l-5.184,2.636,16.217,15.577,5.14-2.614c1.473-.749,2.415-1.705,2.824-2.867.411-1.163.295-2.472-.35-3.927ZM266.13,180.451c-.259.663-.842,1.225-1.747,1.686l-1.948.991-10.341-9.933,1.955-.993c.907-.461,1.848-.677,2.826-.647.978.029,2.003.33,3.077.901,1.074.57,2.21,1.431,3.407,2.582,1.209,1.16,2.038,2.188,2.486,3.08.45.892.546,1.67.285,2.333Z" fill="#c78100" stroke-width="0"/>
<title>ounce gold usd</title></svg>
