<svg xmlns="http://www.w3.org/2000/svg" viewBox="0 0 80.37 122.88"><path d="M20.77 12.72c4.42 0 8 1.61 8 3.6s-3.58 3.6-8 3.6-8-1.61-8-3.6 3.58-3.6 8-3.6zm19.4 42.33c.74 3.18 1.6 5.71 2.54 7.6.95 1.88 2.4 3.92 4.35 6.13l.84.94c2.55 2.83 3.81 5.67 3.81 8.5 0 3.14-1.13 5.82-3.4 8.07-2.27 2.24-4.99 3.37-8.14 3.37-3.15 0-5.86-1.13-8.13-3.37-2.27-2.24-3.4-4.93-3.4-8.07 0-2.83 1.27-5.67 3.81-8.5l.84-.94c1.95-2.2 3.4-4.24 4.35-6.13.95-1.89 1.8-4.43 2.53-7.6zm-7.64 21.47c-.06-.64.42-1.21 1.06-1.27.64-.06 1.21.42 1.27 1.06.15 1.55.49 2.99 1.14 4.22.63 1.19 1.56 2.22 2.91 3.01.56.33.74 1.04.42 1.6-.33.56-1.04.74-1.6.42-1.76-1.03-2.98-2.37-3.8-3.94-.8-1.52-1.22-3.25-1.4-5.1zM40.1 0c10.66 0 20.36 1.64 27.42 4.29 7.66 2.87 12.39 7.04 12.39 11.81 0 1.71-.61 3.34-1.74 4.86v17.46c-.9.95-1.97 1.83-3.2 2.64-8.29 5.47-23.18 7.6-37.53 7.16-14.31-.44-27.97-3.42-33.84-8.17-.54-.44-1.01-.88-1.39-1.34l.12-.13V21.36C1 19.73.28 17.96.28 16.1c0-4.78 4.74-8.94 12.39-11.81C19.74 1.64 29.44 0 40.1 0zm39.59 40.97c.45.94.68 1.51.68 2.91 0 1.4-.77 3.54-2.19 5.15v34.91c-.9.95-1.97 1.83-3.2 2.64-8.29 5.47-23.18 7.6-37.53 7.16-14.32-.44-27.98-3.42-33.85-8.18-.57-.46-1.05-.93-1.44-1.4.06-.07.11-.13.17-.19v-34.8C.82 47.52 0 45.26 0 43.87c0-1.39.2-1.82.59-2.7.37.38.77.74 1.2 1.09 6.36 5.15 20.69 8.36 35.58 8.82 14.86.46 30.38-1.82 39.19-7.63 1.16-.76 2.2-1.59 3.13-2.48zm.04 45.47c.42.91.64 1.44.64 2.82s-.77 3.54-2.19 5.15V103c1.19 1.45 1.83 2.99 1.83 4.59 0 8.44-17.83 15.29-39.82 15.29-21.99 0-39.82-6.84-39.82-15.29 0-1.66.69-3.25 1.96-4.74v-8.29C.82 92.9 0 90.63 0 89.26c0-1.37.19-1.76.55-2.61.38.39.79.77 1.24 1.13 6.36 5.15 20.69 8.36 35.58 8.82 14.86.46 30.38-1.82 39.19-7.63 1.17-.78 2.24-1.62 3.17-2.53zM65.76 8.01C59.24 5.56 50.17 4.05 40.1 4.05S20.96 5.56 14.44 8.01c-5.93 2.22-9.6 5.1-9.6 8.09 0 3 3.67 5.87 9.6 8.09 6.52 2.44 15.59 3.96 25.66 3.96s19.14-1.51 25.66-3.96c5.93-2.22 9.6-5.1 9.6-8.09s-3.67-5.87-9.6-8.09zm-44.99 6.61c2.69 0 4.87.76 4.87 1.7s-2.18 1.7-4.87 1.7-4.87-.76-4.87-1.7c0-.93 2.18-1.7 4.87-1.7z" fill-rule="evenodd" clip-rule="evenodd"/></svg>